<svg width="4" height="5" viewBox="0 0 4 5" fill="none" xmlns="http://www.w3.org/2000/svg">
<path d="M2 4.06155C1.65625 4.06155 1.34233 3.97774 1.05824 3.81013C0.774148 3.63967 0.546875 3.4124 0.37642 3.12831C0.208807 2.84422 0.125 2.5303 0.125 2.18655C0.125 1.83995 0.208807 1.52603 0.37642 1.24478C0.546875 0.960693 0.774148 0.734841 1.05824 0.567227C1.34233 0.396773 1.65625 0.311545 2 0.311545C2.34659 0.311545 2.66051 0.396773 2.94176 0.567227C3.22585 0.734841 3.4517 0.960693 3.61932 1.24478C3.78977 1.52603 3.875 1.83995 3.875 2.18655C3.875 2.5303 3.78977 2.84422 3.61932 3.12831C3.4517 3.4124 3.22585 3.63967 2.94176 3.81013C2.66051 3.97774 2.34659 4.06155 2 4.06155Z" fill="black"/>
</svg>
