<svg width="25" height="25" viewBox="0 0 25 25" fill="none" xmlns="http://www.w3.org/2000/svg">
<path d="M12.9597 21.3408C17.9303 21.3408 21.9597 17.3114 21.9597 12.3408C21.9597 7.37026 17.9303 3.34082 12.9597 3.34082C7.98915 3.34082 3.95972 7.37026 3.95972 12.3408C3.95972 17.3114 7.98915 21.3408 12.9597 21.3408Z" stroke="#0860CF" stroke-width="2" stroke-linecap="round" stroke-linejoin="round"/>
<path d="M18.1762 19.6731C16.8945 18.2416 15.0322 17.3408 12.9596 17.3408C10.8869 17.3408 9.02464 18.2416 7.74292 19.6731" stroke="#0860CF" stroke-width="2" stroke-linecap="round" stroke-linejoin="round"/>
<path d="M12.9597 14.3408C14.6166 14.3408 15.9597 12.9977 15.9597 11.3408C15.9597 9.68397 14.6166 8.34082 12.9597 8.34082C11.3029 8.34082 9.95972 9.68397 9.95972 11.3408C9.95972 12.9977 11.3029 14.3408 12.9597 14.3408Z" stroke="#0860CF" stroke-width="2" stroke-linecap="round" stroke-linejoin="round"/>
</svg>
