<svg width="24" height="18" viewBox="0 0 24 18" fill="none" xmlns="http://www.w3.org/2000/svg">
<path d="M23.5177 3.37434C23.2478 2.37238 22.4571 1.58259 21.4545 1.31278C19.6225 0.81189 12.2948 0.81189 12.2948 0.81189C12.2948 0.81189 4.96733 0.81189 3.13541 1.29369C2.15202 1.56332 1.34206 2.37256 1.0722 3.37434C0.590149 5.20446 0.590149 8.99996 0.590149 8.99996C0.590149 8.99996 0.590149 12.8146 1.0722 14.6256C1.34224 15.6274 2.13274 16.4173 3.13559 16.6871C4.98662 17.188 12.295 17.188 12.295 17.188C12.295 17.188 19.6225 17.188 21.4545 16.7062C22.4573 16.4366 23.2478 15.6466 23.5178 14.6449C23.9999 12.8146 23.9999 9.01923 23.9999 9.01923C23.9999 9.01923 24.0192 5.20446 23.5177 3.37434Z" fill="white"/>
<path d="M9.93262 12.5168L15.9998 9L9.93262 5.48315V12.5168Z" fill="black"/>
</svg>
